<svg version="1.2" xmlns="http://www.w3.org/2000/svg" viewBox="0 0 1254 1254" width="32" height="32">
	<style>
		.s0 { fill: #1945a4 } 
		.s1 { fill: #002147 } 
		.s2 { fill: #1677d2 } 
	</style>
	<g>
		<g id="Carpeta 1">
			<path class="s0" d="m130.43 225.93c-29.27 0.31-53.12 1.08-53.12 1.7 0 5.11-14.87 214.05-18.59 261.29-0.93 11-3.25 44.92-5.42 75.12-4.96 71.1-15.8 218.24-17.81 243.17-0.78 10.69-3.72 48.64-6.2 84.42-2.63 35.78-5.73 77.29-6.97 92.15-1.24 14.87-2.32 29.59-2.32 32.84v5.89h92 91.85l1.08-14.41c3.72-47.55 20.91-249.21 31.14-362.74 1.23-13.63 4.33-49.25 6.97-78.99 2.63-29.9 4.8-55.14 5.11-56.23 0.31-1.54 63.96 63.04 161.39 163.87 13.63 14.1 25.55 26.02 26.64 26.8 1.08 0.77 4.49-2.32 9.14-8.52q40.19-52.51 104.08-113.84c65.67-63.04 140.79-132.58 209.09-193.76l31.6-28.04 21.07-6.97c25.4-8.21 56.22-17.03 87.82-24.78l23.23-5.73 25.09-44.45c13.78-24.47 25.56-45.69 26.18-47.24 0.92-2.63-5.12-2.63-129.33-2.33l-130.42 0.47-11.92 12.39c-6.51 6.82-37.33 38.88-68.46 71.25-30.98 32.37-73.88 76.51-95.26 98.04l-38.72 39.19v8.52c0 4.64-0.31 8.36-0.77 8.36-0.47 0-18.28-18.28-39.5-40.74-21.22-22.3-51.11-53.9-66.6-70-41.04-43.22-81.32-85.66-102.38-107.96l-18.43-19.67-44.14 0.31c-24.32 0.15-68 0.46-97.12 0.62z"/>
			<path class="s1" d="m1029.54 269.3c-3.56 3.25-16.26 14.71-28.03 25.55-11.93 11-22.15 19.83-22.92 19.83-0.78 0-4.96-1.4-9.3-3.1-6.04-2.48-8.36-2.79-9.29-1.39-0.62 1.08-4.34 14.09-8.36 29.12-9.76 36.86-20.76 76.97-21.69 79.61-0.62 1.24 0.78 2.78 3.41 4.02 8.36 3.72 33.92 21.69 45.38 31.76 53.9 47.55 85.81 125.14 78.99 192.36-5.26 51.58-20.91 92.16-51.57 133.36-32.84 43.99-78.84 76.67-131.97 93.86-31.9 10.38-43.98 12.24-84.72 13.01l-36.86 0.77-1.55 6.51c-8.36 32.99-30.67 68.3-55.91 88.75-12.7 10.22-30.05 20.91-41.2 25.4-7.13 2.79-8.06 3.72-5.58 4.65 5.27 2.01 68.31 15.33 72.18 15.33 2.94 0 8.83-5.57 25.55-24.47l21.84-24.63 36.09-1.08c19.83-0.62 40.12-1.55 45.07-2.33l9.14-1.08 19.52 24.78c25.09 31.75 24.16 30.82 30.2 29.43 22.15-4.8 79.61-24.16 82.09-27.57 1.24-1.55 0.46-28.96-1.55-59.01l-0.93-13.94 6.51-3.56c3.56-2.02 13.93-8.99 23.07-15.65l16.89-11.92 6.04 2.79c3.25 1.54 17.81 8.36 32.21 15.17 14.41 6.82 27.73 12.4 29.59 12.4 3.87 0 15.02-11.31 30.97-30.98 14.87-18.28 30.21-39.96 30.21-42.44 0-1.39-2.02-4.65-4.34-7.43-5.58-6.51-36.55-46.32-38.1-48.79-0.47-1.09 2.78-9.45 7.28-18.59 4.64-9.14 9.91-20.75 11.92-25.56 3.1-7.74 4.34-8.98 8.37-9.6 7.74-1.08 50.64-4.03 59.16-4.03 12.24 0 13.63-2.01 18.43-25.09 4.65-23.39 8.52-51.42 8.52-62.57v-8.06l-34.38-13.94-34.54-14.09-0.93-18.28c-0.47-10.06-1.39-22.92-2.17-28.5l-1.08-10.22 31.75-19.67c17.5-10.69 32.21-20.75 32.68-21.99 2.32-6.04-26.18-85.96-31.75-88.91-1.4-0.77-17.04 0.78-38.72 3.88-19.98 2.94-37.02 5.42-38.11 5.42-0.93 0-3.4-2.64-5.26-5.89-2.02-3.1-8.99-13.16-15.8-22.46-11.15-15.02-12.08-17.03-10.69-20.91 0.78-2.32 7.9-17.96 15.8-34.85 9.6-20.91 13.94-31.9 13.32-34.07-1.24-4.8-71.56-56.84-76.82-56.84-0.78 0-4.49 2.63-8.06 5.73z"/>
			<path class="s1" d="m903.16 340.85c-17.04 10.38-29.12 18.75-47.55 32.53-37.79 28.34-96.96 79.46-124.07 107.18l-15.64 16.11-6.35 24.01c-10.38 38.87-28.34 117.86-32.06 140.48-1.24 7.74-1.24 7.59 24.01 50.03 43.36 72.48 52.81 98.04 53.28 143.57 0 12.71 0.77 20.6 1.7 20.6 0.78 0 11.31-3.25 23.39-7.28l21.84-7.43 10.37-49.56c42.29-201.51 77.14-359.65 100.53-455.83 2.94-12.08 4.8-22 4.18-22-0.62 0-6.66 3.41-13.63 7.59z"/>
			<path class="s0" d="m583.47 613.61c-60.56 60.71-98.97 114.15-121.12 168.36-9.91 24.32-13.32 39.34-14.4 63.19-0.62 16.42-0.16 22.92 2.32 35.01 9.14 44.45 38.41 77.75 81.47 92.62 61.03 21.37 129.18-5.11 156.44-60.56 15.79-32.06 16.41-70.32 1.7-105.94-7.43-17.97-12.86-27.88-35.16-63.04-29.43-46.47-37.17-62.73-42.13-89.37-2.79-14.72-3.25-43.37-0.77-56.38 0.77-4.8 1.24-9.76 0.93-10.69-0.31-1.08-13.48 11-29.28 26.8zm-80.85 186.17c0 23.39 0.62 30.82 3.41 42.59 8.67 37.8 27.73 67.84 57.62 90.46 10.38 7.74 10.84 8.36 6.97 8.83-8.06 1.08-29.28-4.34-41.82-10.54-22.3-10.99-36.09-26.79-43.21-49.25-6.97-22.61-6.51-46.31 1.39-73.42 3.25-11.46 13.78-36.86 15.18-36.86 0.31 0 0.46 12.7 0.46 28.19z"/>
		</g>
		<path id="Forma 1" fill-rule="evenodd" class="s2" d=""/>
	</g>
</svg>